<?xml version="1.0" encoding="utf-8"?>
<!-- Generator: Adobe Illustrator 28.0.0, SVG Export Plug-In . SVG Version: 6.00 Build 0)  -->
<svg version="1.1" id="Слой_1" xmlns="http://www.w3.org/2000/svg" xmlns:xlink="http://www.w3.org/1999/xlink" x="0px" y="0px"
	 viewBox="0 0 3000 3000" style="enable-background:new 0 0 3000 3000;" xml:space="preserve">
<style type="text/css">
	.st0{display:none;}
	.st1{display:inline;}
	.st2{fill:#00398F;}
	.st3{fill:#FFCF3B;}
	.st4{fill:#00A049;}
	.st5{fill:#FFFFFF;}
</style>
<g class="st0">
	<g class="st1">
		<path class="st2" d="M1540.41,2128.37v-318.33c0,0-61.32-99.25-178.57-74.67c-9.51,1.99-16.31,10.39-16.31,20.1v284.22
			c0,11.15,8.89,20.25,20.04,20.53C1403.71,2061.16,1487.58,2070.22,1540.41,2128.37z"/>
		<path class="st2" d="M1571.28,2128.37v-318.33c0,0,61.32-99.25,178.57-74.67c9.51,1.99,16.31,10.39,16.31,20.1v284.22
			c0,11.15-8.89,20.25-20.04,20.53C1707.99,2061.16,1624.11,2070.22,1571.28,2128.37z"/>
		<path class="st2" d="M1599.49,2145.12c0,0,125.02-23.78,214.82-4.81c9.72,2.05,18.85-5.38,18.85-15.31v-312.3
			c0-9.75-7.9-17.65-17.65-17.65h-15.85v250.74c0,24.38-18.94,44.53-43.27,46.12C1708.55,2095.04,1633.74,2106.27,1599.49,2145.12z"
			/>
		<path class="st2" d="M1512.2,2145.12c0,0-125.02-23.78-214.82-4.81c-9.72,2.05-18.85-5.38-18.85-15.31v-312.3
			c0-9.75,7.9-17.65,17.65-17.65h15.85v250.74c0,24.38,18.94,44.53,43.27,46.12C1403.14,2095.04,1477.95,2106.27,1512.2,2145.12z"/>
	</g>
	<g class="st1">
		<g>
			<path class="st3" d="M1760.55,755.77l2.21,5.64h-19.31c0.47-4.83,0.64-9.71,0.7-14.6c0.23-23.79-4.01-47.23-12.56-69.62
				c-18.15-47.75-53.8-85.56-100.45-106.38c-24.95-11.23-51.3-16.93-78.29-16.93c-23.15,0-46.07,4.25-68.05,12.62
				c-47.75,18.21-85.56,53.92-106.44,100.45c-11.4,25.48-17.1,52.35-16.87,79.92c0,4.89,0.23,9.71,0.7,14.54h-25.3l2.21-4.94
				l5.7-12.85l1.98-4.36l-1.69-4.54l-37.98-99.75l99.75-37.92l4.54-1.74l1.98-4.36l43.68-97.42l97.42,43.68l4.36,1.98l4.54-1.74
				l99.75-37.92l37.92,99.75l1.74,4.54l4.36,1.92l97.42,43.74l-43.51,96.84l-0.23,0.58l-1.98,4.42L1760.55,755.77z"/>
		</g>
		<g>
			<path class="st3" d="M1684.65,740.01c0,7.21-0.58,14.37-1.75,21.4H1422.8c-1.16-7.04-1.8-14.19-1.8-21.35
				c0-18.67,3.9-36.88,11.63-54.09c21.17-47.29,68.4-77.82,120.28-77.88c18.67,0,36.76,3.96,53.92,11.63
				C1654.11,640.96,1684.65,688.19,1684.65,740.01z"/>
		</g>
	</g>
	<g class="st1">
		<path class="st2" d="M1270.69,979.18v634.62H911.83V979.18H1270.69 M1290.62,959.25H891.9v674.48h398.72V959.25L1290.62,959.25z"
			/>
		<path class="st2" d="M1801.14,843.93v769.87h-490.59V843.93H1801.14 M1821.07,824h-530.45v809.73h530.45V824L1821.07,824z"/>
		<path class="st2" d="M1290.62,1054.1v88.12c-30.16-22.13-89.65-37.18-158.08-37.18c-91.35,0-166.74,26.82-177.77,61.48h-43.54
			v467.22H891.9V1054.1H1290.62z"/>
		<path class="st2" d="M2199.86,979.18v634.62H1841V979.18H2199.86 M2219.79,959.25h-398.72v674.48h398.72V959.25L2219.79,959.25z"
			/>
		<path class="st2" d="M1821.07,1054.1v88.12c30.16-22.13,89.65-37.18,158.08-37.18c91.35,0,166.74,26.82,177.77,61.48h43.54v467.22
			h19.32V1054.1H1821.07z"/>
		<rect x="1290.62" y="989.11" class="st2" width="22.83" height="644.62"/>
		<rect x="1798.24" y="989.11" class="st2" width="22.83" height="644.62"/>
		<rect x="1290.62" y="824" class="st2" width="530.45" height="165.11"/>
		<path class="st2" d="M1798.24,1001.4v145.82c-52.25-21.2-141.31-70.29-242.39-70.29s-190.14,49.09-242.39,70.29V1001.4H1798.24z"
			/>
		<g>
			<g>
				<path class="st2" d="M1077.74,1310.54H971.28V1185.1h106.46V1310.54z M977.01,1304.82h95.02v-114h-95.02V1304.82z"/>
			</g>
			<g>
				<rect x="1001.96" y="1187.96" class="st2" width="5.72" height="119.72"/>
			</g>
			<g>
				<rect x="1042.26" y="1188.44" class="st2" width="5.72" height="119.72"/>
			</g>
			<g>
				<rect x="974.14" y="1219.42" class="st2" width="100.74" height="5.72"/>
			</g>
		</g>
		<g>
			<g>
				<path class="st2" d="M1237.58,1310.54h-106.46V1185.1h106.46V1310.54z M1136.84,1304.82h95.02v-114h-95.02V1304.82z"/>
			</g>
			<g>
				<rect x="1161.8" y="1187.96" class="st2" width="5.72" height="119.72"/>
			</g>
			<g>
				<rect x="1202.1" y="1188.44" class="st2" width="5.72" height="119.72"/>
			</g>
			<g>
				<rect x="1133.98" y="1219.42" class="st2" width="100.74" height="5.72"/>
			</g>
		</g>
		<g>
			<g>
				<path class="st2" d="M1077.74,1542.4H971.28v-125.44h106.46V1542.4z M977.01,1536.67h95.02v-114h-95.02V1536.67z"/>
			</g>
			<g>
				<rect x="1001.96" y="1419.81" class="st2" width="5.72" height="119.72"/>
			</g>
			<g>
				<rect x="1042.26" y="1420.29" class="st2" width="5.72" height="119.72"/>
			</g>
			<g>
				<rect x="974.14" y="1451.28" class="st2" width="100.74" height="5.72"/>
			</g>
		</g>
		<g>
			<g>
				<path class="st2" d="M1237.58,1542.4h-106.46v-125.44h106.46V1542.4z M1136.84,1536.67h95.02v-114h-95.02V1536.67z"/>
			</g>
			<g>
				<rect x="1161.8" y="1419.81" class="st2" width="5.72" height="119.72"/>
			</g>
			<g>
				<rect x="1202.1" y="1420.29" class="st2" width="5.72" height="119.72"/>
			</g>
			<g>
				<rect x="1133.98" y="1451.28" class="st2" width="100.74" height="5.72"/>
			</g>
		</g>
		<g>
			<g>
				<path class="st2" d="M1994.62,1310.54h-106.46V1185.1h106.46V1310.54z M1893.88,1304.82h95.02v-114h-95.02V1304.82z"/>
			</g>
			<g>
				<rect x="1918.84" y="1187.96" class="st2" width="5.72" height="119.72"/>
			</g>
			<g>
				<rect x="1959.13" y="1188.44" class="st2" width="5.72" height="119.72"/>
			</g>
			<g>
				<rect x="1891.02" y="1219.42" class="st2" width="100.74" height="5.72"/>
			</g>
		</g>
		<g>
			<g>
				<path class="st2" d="M2154.46,1310.54H2048V1185.1h106.46V1310.54z M2053.72,1304.82h95.01v-114h-95.01V1304.82z"/>
			</g>
			<g>
				<rect x="2078.68" y="1187.96" class="st2" width="5.72" height="119.72"/>
			</g>
			<g>
				<rect x="2118.97" y="1188.44" class="st2" width="5.72" height="119.72"/>
			</g>
			<g>
				<rect x="2050.86" y="1219.42" class="st2" width="100.74" height="5.72"/>
			</g>
		</g>
		<g>
			<g>
				<path class="st2" d="M1994.62,1542.4h-106.46v-125.44h106.46V1542.4z M1893.88,1536.67h95.02v-114h-95.02V1536.67z"/>
			</g>
			<g>
				<rect x="1918.84" y="1419.81" class="st2" width="5.72" height="119.72"/>
			</g>
			<g>
				<rect x="1959.13" y="1420.29" class="st2" width="5.72" height="119.72"/>
			</g>
			<g>
				<rect x="1891.02" y="1451.28" class="st2" width="100.74" height="5.72"/>
			</g>
		</g>
		<g>
			<g>
				<path class="st2" d="M2154.46,1542.4H2048v-125.44h106.46V1542.4z M2053.72,1536.67h95.01v-114h-95.01V1536.67z"/>
			</g>
			<g>
				<rect x="2078.68" y="1419.81" class="st2" width="5.72" height="119.72"/>
			</g>
			<g>
				<rect x="2118.97" y="1420.29" class="st2" width="5.72" height="119.72"/>
			</g>
			<g>
				<rect x="2050.86" y="1451.28" class="st2" width="100.74" height="5.72"/>
			</g>
		</g>
		<rect x="1313.45" y="1370.26" class="st2" width="484.79" height="68.5"/>
	</g>
	<g class="st1">
		<g>
			<path class="st2" d="M466.03,698.19c-11.08,51.28-17.68,103.39-22.27,155.56c-4.44,52.2-6.31,104.57-5.81,156.87
				c1.27,104.59,12.02,209.02,34.01,310.94c21.85,101.9,54.7,201.3,99.04,295.12c22.19,46.88,47.01,92.48,74.86,136.13
				c27.83,43.65,58.36,85.49,91.26,125.32c16.26,20.08,33.72,39.13,51.06,58.25l26.97,27.78c8.9,9.34,18.55,17.95,27.78,26.95
				c37.6,35.32,76.8,68.99,118.35,99.61c5.16,3.87,10.22,7.86,15.45,11.64l15.84,11.12c10.62,7.33,20.97,15.02,31.79,22.04
				c21.66,14.03,43.12,28.32,65.48,41.22c21.93,13.58,44.73,25.71,67.31,38.19c11.22,6.35,22.96,11.79,34.41,17.73
				c11.58,5.7,22.88,11.92,34.68,17.18c186.73,88.61,387.48,145.76,591.44,181.52l-14.4,75.14
				c-207.88-43-412.66-107.97-602.57-205.27c-11.99-5.8-23.5-12.58-35.27-18.82c-11.64-6.49-23.55-12.46-34.96-19.38
				c-22.95-13.59-46.07-26.83-68.33-41.56c-22.67-14.03-44.44-29.48-66.36-44.65c-10.95-7.59-21.44-15.87-32.17-23.78l-16-11.99
				c-5.28-4.06-10.4-8.35-15.61-12.51c-41.95-32.94-81.43-68.97-119.14-106.62c-9.26-9.59-18.92-18.77-27.83-28.69l-26.96-29.51
				c-17.31-20.27-34.68-40.45-50.82-61.65c-32.65-42.06-62.74-86.06-89.94-131.74c-27.22-45.67-51.23-93.17-72.45-141.77
				c-42.4-97.27-72.69-199.4-91.68-303.26c-19.12-103.88-26.73-209.52-24.81-314.71c1.1-52.6,4.58-105.12,10.62-157.31
				C445.19,801.11,453.39,749.12,466.03,698.19z"/>
			<path class="st2" d="M381.32,1045.23c0,0-5.47-147.56-27.33-169.42c-21.86-21.86-81.98-60.12-81.98-60.12
				s27.33,71.05,21.86,125.7C293.88,941.39,288.41,1001.5,381.32,1045.23z"/>
			<path class="st2" d="M244.69,1023.37c0,0,65.58,251.4,174.89,235c0,0-32.79-163.96-71.05-191.28S288.41,1056.16,244.69,1023.37z"
				/>
			<path class="st2" d="M250.16,1225.58c0,0,49.19,92.91,76.51,169.42c27.33,76.51,81.98,103.84,153.03,114.77
				C479.7,1509.77,430.51,1236.51,250.16,1225.58z"/>
			<path class="st2" d="M282.95,1498.84c0,0,109.3,273.26,300.59,267.8c0,0-71.97-169.33-145.11-232.29
				c-13.99-12.04-31.91-18.55-50.37-18.5C361.91,1515.91,316.19,1513.61,282.95,1498.84z"/>
			<path class="st2" d="M354,1810.36l110.43-7.12c41.72-2.69,82.99,10.22,115.5,36.51c42.28,34.19,101.99,90.86,156.63,172.83
				C736.56,2012.57,599.93,2094.55,354,1810.36z"/>
			<path class="st2" d="M523.42,2083.62c0,0,284.19,306.05,459.08,185.82c0,0-196.75-207.68-278.73-213.14
				c-81.98-5.47-109.3,27.33-185.82,27.33"/>
			<path class="st2" d="M1130.06,2171.06c0,0,109.3-98.37-174.89-420.82c0,0-15.54,87.08-27.33,142.1
				C911.45,1968.85,1015.29,2143.74,1130.06,2171.06z"/>
			<path class="st2" d="M769.35,1558.96c0,0-98.37,163.96-21.86,273.26s103.84,120.23,103.84,120.23s76.51-103.84-21.86-278.73
				C829.47,1673.73,763.89,1575.35,769.35,1558.96z"/>
			<path class="st2" d="M687.37,1313.02c0,0-180.35,158.49-27.33,371.63c0,0,87.44-32.79,65.58-196.75
				C725.63,1487.91,665.51,1362.21,687.37,1313.02z"/>
			<path class="st2" d="M627.26,1127.2c0,0-120.23,54.65-98.37,180.35c21.86,125.7,27.33,136.63,27.33,136.63
				s65.58-49.19,76.51-125.7C643.65,1241.97,627.26,1127.2,627.26,1127.2z"/>
			<path class="st2" d="M496.09,1209.18c0,0-87.44-142.1,98.37-267.8c0,0,0,147.56-21.86,180.35
				C550.74,1154.53,567.14,1176.39,496.09,1209.18z"/>
			<path class="st2" d="M474.23,990.57c0,0-60.12-109.3,92.91-213.14C567.14,777.43,572.6,957.78,474.23,990.57z"/>
		</g>
		<g>
			<path class="st2" d="M2645.66,698.19c11.08,51.28,17.68,103.39,22.27,155.56c4.44,52.2,6.31,104.57,5.81,156.87
				c-1.27,104.59-12.02,209.02-34.01,310.94c-21.85,101.9-54.7,201.3-99.04,295.12c-22.19,46.88-47.01,92.48-74.86,136.13
				c-27.83,43.65-58.36,85.49-91.26,125.32c-16.26,20.08-33.72,39.13-51.06,58.25l-26.97,27.78c-8.9,9.34-18.55,17.95-27.78,26.95
				c-37.6,35.32-76.8,68.99-118.35,99.61c-5.16,3.87-10.22,7.86-15.45,11.64l-15.84,11.12c-10.62,7.33-20.97,15.02-31.79,22.04
				c-21.66,14.03-43.12,28.32-65.48,41.22c-21.93,13.58-44.73,25.71-67.31,38.19c-11.22,6.35-22.96,11.79-34.41,17.73
				c-11.58,5.7-22.88,11.92-34.68,17.18c-186.73,88.61-387.48,145.76-591.44,181.52l14.4,75.14
				c207.88-43,412.66-107.97,602.57-205.27c11.99-5.8,23.5-12.58,35.27-18.82c11.64-6.49,23.55-12.46,34.96-19.38
				c22.95-13.59,46.07-26.83,68.33-41.56c22.67-14.03,44.44-29.48,66.36-44.65c10.95-7.59,21.44-15.87,32.17-23.78l16-11.99
				c5.28-4.06,10.4-8.35,15.61-12.51c41.95-32.94,81.43-68.97,119.14-106.62c9.26-9.59,18.92-18.77,27.83-28.69l26.96-29.51
				c17.31-20.27,34.68-40.45,50.82-61.65c32.65-42.06,62.74-86.06,89.94-131.74c27.22-45.67,51.23-93.17,72.45-141.77
				c42.4-97.27,72.69-199.4,91.68-303.26c19.12-103.88,26.73-209.52,24.81-314.71c-1.1-52.6-4.58-105.12-10.62-157.31
				C2666.5,801.11,2658.3,749.12,2645.66,698.19z"/>
			<path class="st2" d="M2730.37,1045.23c0,0,5.47-147.56,27.33-169.42c21.86-21.86,81.98-60.12,81.98-60.12
				s-27.33,71.05-21.86,125.7C2817.81,941.39,2823.28,1001.5,2730.37,1045.23z"/>
			<path class="st2" d="M2867,1023.37c0,0-65.58,251.4-174.89,235c0,0,32.79-163.96,71.05-191.28S2823.28,1056.16,2867,1023.37z"/>
			<path class="st2" d="M2861.53,1225.58c0,0-49.19,92.91-76.51,169.42c-27.33,76.51-81.98,103.84-153.03,114.77
				C2632,1509.77,2681.18,1236.51,2861.53,1225.58z"/>
			<path class="st2" d="M2828.74,1498.84c0,0-109.3,273.26-300.59,267.8c0,0,71.97-169.33,145.11-232.29
				c13.99-12.04,31.91-18.55,50.37-18.5C2749.78,1515.91,2795.5,1513.61,2828.74,1498.84z"/>
			<path class="st2" d="M2757.7,1810.36l-110.43-7.12c-41.72-2.69-82.99,10.22-115.5,36.51c-42.28,34.19-101.99,90.86-156.63,172.83
				C2375.13,2012.57,2511.76,2094.55,2757.7,1810.36z"/>
			<path class="st2" d="M2588.27,2083.62c0,0-284.19,306.05-459.08,185.82c0,0,196.75-207.68,278.73-213.14
				c81.98-5.47,109.3,27.33,185.82,27.33"/>
			<path class="st2" d="M1981.64,2171.06c0,0-109.3-98.37,174.89-420.82c0,0,15.54,87.08,27.33,142.1
				C2200.24,1968.85,2096.4,2143.74,1981.64,2171.06z"/>
			<path class="st2" d="M2342.34,1558.96c0,0,98.37,163.96,21.86,273.26c-76.51,109.3-103.84,120.23-103.84,120.23
				s-76.51-103.84,21.86-278.73C2282.22,1673.73,2347.8,1575.35,2342.34,1558.96z"/>
			<path class="st2" d="M2424.32,1313.02c0,0,180.35,158.49,27.33,371.63c0,0-87.44-32.79-65.58-196.75
				C2386.06,1487.91,2446.18,1362.21,2424.32,1313.02z"/>
			<path class="st2" d="M2484.43,1127.2c0,0,120.23,54.65,98.37,180.35s-27.33,136.63-27.33,136.63s-65.58-49.19-76.51-125.7
				C2468.04,1241.97,2484.43,1127.2,2484.43,1127.2z"/>
			<path class="st2" d="M2615.6,1209.18c0,0,87.44-142.1-98.37-267.8c0,0,0,147.56,21.86,180.35
				C2560.95,1154.53,2544.55,1176.39,2615.6,1209.18z"/>
			<path class="st2" d="M2637.46,990.57c0,0,60.12-109.3-92.91-213.14C2544.55,777.43,2539.09,957.78,2637.46,990.57z"/>
		</g>
	</g>
	<g class="st1">
		<polygon class="st3" points="1250.17,913.5 648.72,913.5 648.72,892.58 1229.25,892.58 1229.25,751.37 1552.82,751.37 
			1552.82,772.29 1250.17,772.29 		"/>
	</g>
	<g class="st1">
		<polygon class="st3" points="2457.62,913.5 1856.16,913.5 1856.16,772.29 1553.52,772.29 1553.52,751.37 1877.08,751.37 
			1877.08,892.58 2457.62,892.58 		"/>
	</g>
</g>
<g class="st0">
	<g class="st1">
		<g>
			<path class="st3" d="M1760.55,755.77l2.21,5.64h-19.31c0.47-4.83,0.64-9.71,0.7-14.6c0.23-23.79-4.01-47.23-12.56-69.62
				c-18.15-47.75-53.8-85.56-100.45-106.38c-24.95-11.23-51.3-16.93-78.29-16.93c-23.15,0-46.07,4.25-68.05,12.62
				c-47.75,18.21-85.56,53.92-106.44,100.45c-11.4,25.48-17.1,52.35-16.87,79.92c0,4.89,0.23,9.71,0.7,14.54h-25.3l2.21-4.94
				l5.7-12.85l1.98-4.36l-1.69-4.54l-37.98-99.75l99.75-37.92l4.54-1.74l1.98-4.36l43.68-97.42l97.42,43.68l4.36,1.98l4.54-1.74
				l99.75-37.92l37.92,99.75l1.74,4.54l4.36,1.92l97.42,43.74l-43.51,96.84l-0.23,0.58l-1.98,4.42L1760.55,755.77z"/>
		</g>
		<g>
			<path class="st3" d="M1684.65,740.01c0,7.21-0.58,14.37-1.75,21.4H1422.8c-1.16-7.04-1.8-14.19-1.8-21.35
				c0-18.67,3.9-36.88,11.63-54.09c21.17-47.29,68.4-77.82,120.28-77.88c18.67,0,36.76,3.96,53.92,11.63
				C1654.11,640.96,1684.65,688.19,1684.65,740.01z"/>
		</g>
	</g>
	<g class="st1">
		<path class="st4" d="M1270.69,979.18v634.62H911.83V979.18H1270.69 M1290.62,959.25H891.9v674.48h398.72V959.25L1290.62,959.25z"
			/>
		<path class="st4" d="M1801.14,843.93v769.87h-490.59V843.93H1801.14 M1821.07,824h-530.45v809.73h530.45V824L1821.07,824z"/>
		<path class="st4" d="M1290.62,1054.1v88.12c-30.16-22.13-89.65-37.18-158.08-37.18c-91.35,0-166.74,26.82-177.77,61.48h-43.54
			v467.22H891.9V1054.1H1290.62z"/>
		<path class="st4" d="M2199.86,979.18v634.62H1841V979.18H2199.86 M2219.79,959.25h-398.72v674.48h398.72V959.25L2219.79,959.25z"
			/>
		<path class="st4" d="M1821.07,1054.1v88.12c30.16-22.13,89.65-37.18,158.08-37.18c91.35,0,166.74,26.82,177.77,61.48h43.54v467.22
			h19.32V1054.1H1821.07z"/>
		<rect x="1290.62" y="989.11" class="st4" width="22.83" height="644.62"/>
		<rect x="1798.24" y="989.11" class="st4" width="22.83" height="644.62"/>
		<rect x="1290.62" y="824" class="st4" width="530.45" height="165.11"/>
		<path class="st4" d="M1798.24,1001.4v145.82c-52.25-21.2-141.31-70.29-242.39-70.29s-190.14,49.09-242.39,70.29V1001.4H1798.24z"
			/>
		<g>
			<g>
				<path class="st4" d="M1077.74,1310.54H971.28V1185.1h106.46V1310.54z M977.01,1304.82h95.02v-114h-95.02V1304.82z"/>
			</g>
			<g>
				<rect x="1001.96" y="1187.96" class="st4" width="5.72" height="119.72"/>
			</g>
			<g>
				<rect x="1042.26" y="1188.44" class="st4" width="5.72" height="119.72"/>
			</g>
			<g>
				<rect x="974.14" y="1219.42" class="st4" width="100.74" height="5.72"/>
			</g>
		</g>
		<g>
			<g>
				<path class="st4" d="M1237.58,1310.54h-106.46V1185.1h106.46V1310.54z M1136.84,1304.82h95.02v-114h-95.02V1304.82z"/>
			</g>
			<g>
				<rect x="1161.8" y="1187.96" class="st4" width="5.72" height="119.72"/>
			</g>
			<g>
				<rect x="1202.1" y="1188.44" class="st4" width="5.72" height="119.72"/>
			</g>
			<g>
				<rect x="1133.98" y="1219.42" class="st4" width="100.74" height="5.72"/>
			</g>
		</g>
		<g>
			<g>
				<path class="st4" d="M1077.74,1542.4H971.28v-125.44h106.46V1542.4z M977.01,1536.67h95.02v-114h-95.02V1536.67z"/>
			</g>
			<g>
				<rect x="1001.96" y="1419.81" class="st4" width="5.72" height="119.72"/>
			</g>
			<g>
				<rect x="1042.26" y="1420.29" class="st4" width="5.72" height="119.72"/>
			</g>
			<g>
				<rect x="974.14" y="1451.28" class="st4" width="100.74" height="5.72"/>
			</g>
		</g>
		<g>
			<g>
				<path class="st4" d="M1237.58,1542.4h-106.46v-125.44h106.46V1542.4z M1136.84,1536.67h95.02v-114h-95.02V1536.67z"/>
			</g>
			<g>
				<rect x="1161.8" y="1419.81" class="st4" width="5.72" height="119.72"/>
			</g>
			<g>
				<rect x="1202.1" y="1420.29" class="st4" width="5.72" height="119.72"/>
			</g>
			<g>
				<rect x="1133.98" y="1451.28" class="st4" width="100.74" height="5.72"/>
			</g>
		</g>
		<g>
			<g>
				<path class="st4" d="M1994.62,1310.54h-106.46V1185.1h106.46V1310.54z M1893.88,1304.82h95.02v-114h-95.02V1304.82z"/>
			</g>
			<g>
				<rect x="1918.84" y="1187.96" class="st4" width="5.72" height="119.72"/>
			</g>
			<g>
				<rect x="1959.13" y="1188.44" class="st4" width="5.72" height="119.72"/>
			</g>
			<g>
				<rect x="1891.02" y="1219.42" class="st4" width="100.74" height="5.72"/>
			</g>
		</g>
		<g>
			<g>
				<path class="st4" d="M2154.46,1310.54H2048V1185.1h106.46V1310.54z M2053.72,1304.82h95.01v-114h-95.01V1304.82z"/>
			</g>
			<g>
				<rect x="2078.68" y="1187.96" class="st4" width="5.72" height="119.72"/>
			</g>
			<g>
				<rect x="2118.97" y="1188.44" class="st4" width="5.72" height="119.72"/>
			</g>
			<g>
				<rect x="2050.86" y="1219.42" class="st4" width="100.74" height="5.72"/>
			</g>
		</g>
		<g>
			<g>
				<path class="st4" d="M1994.62,1542.4h-106.46v-125.44h106.46V1542.4z M1893.88,1536.67h95.02v-114h-95.02V1536.67z"/>
			</g>
			<g>
				<rect x="1918.84" y="1419.81" class="st4" width="5.72" height="119.72"/>
			</g>
			<g>
				<rect x="1959.13" y="1420.29" class="st4" width="5.72" height="119.72"/>
			</g>
			<g>
				<rect x="1891.02" y="1451.28" class="st4" width="100.74" height="5.72"/>
			</g>
		</g>
		<g>
			<g>
				<path class="st4" d="M2154.46,1542.4H2048v-125.44h106.46V1542.4z M2053.72,1536.67h95.01v-114h-95.01V1536.67z"/>
			</g>
			<g>
				<rect x="2078.68" y="1419.81" class="st4" width="5.72" height="119.72"/>
			</g>
			<g>
				<rect x="2118.97" y="1420.29" class="st4" width="5.72" height="119.72"/>
			</g>
			<g>
				<rect x="2050.86" y="1451.28" class="st4" width="100.74" height="5.72"/>
			</g>
		</g>
		<rect x="1313.45" y="1370.26" class="st4" width="484.79" height="68.5"/>
	</g>
	<g class="st1">
		<g>
			<path class="st4" d="M466.03,698.19c-11.08,51.28-17.68,103.39-22.27,155.56c-4.44,52.2-6.31,104.57-5.81,156.87
				c1.27,104.59,12.02,209.02,34.01,310.94c21.85,101.9,54.7,201.3,99.04,295.12c22.19,46.88,47.01,92.48,74.86,136.13
				c27.83,43.65,58.36,85.49,91.26,125.32c16.26,20.08,33.72,39.13,51.06,58.25l26.97,27.78c8.9,9.34,18.55,17.95,27.78,26.95
				c37.6,35.32,76.8,68.99,118.35,99.61c5.16,3.87,10.22,7.86,15.45,11.64l15.84,11.12c10.62,7.33,20.97,15.02,31.79,22.04
				c21.66,14.03,43.12,28.32,65.48,41.22c21.93,13.58,44.73,25.71,67.31,38.19c11.22,6.35,22.96,11.79,34.41,17.73
				c11.58,5.7,22.88,11.92,34.68,17.18c186.73,88.61,387.48,145.76,591.44,181.52l-14.4,75.14
				c-207.88-43-412.66-107.97-602.57-205.27c-11.99-5.8-23.5-12.58-35.27-18.82c-11.64-6.49-23.55-12.46-34.96-19.38
				c-22.95-13.59-46.07-26.83-68.33-41.56c-22.67-14.03-44.44-29.48-66.36-44.65c-10.95-7.59-21.44-15.87-32.17-23.78l-16-11.99
				c-5.28-4.06-10.4-8.35-15.61-12.51c-41.95-32.94-81.43-68.97-119.14-106.62c-9.26-9.59-18.92-18.77-27.83-28.69l-26.96-29.51
				c-17.31-20.27-34.68-40.45-50.82-61.65c-32.65-42.06-62.74-86.06-89.94-131.74c-27.22-45.67-51.23-93.17-72.45-141.77
				c-42.4-97.27-72.69-199.4-91.68-303.26c-19.12-103.88-26.73-209.52-24.81-314.71c1.1-52.6,4.58-105.12,10.62-157.31
				C445.19,801.11,453.39,749.12,466.03,698.19z"/>
			<path class="st4" d="M381.32,1045.23c0,0-5.47-147.56-27.33-169.42c-21.86-21.86-81.98-60.12-81.98-60.12
				s27.33,71.05,21.86,125.7C293.88,941.39,288.41,1001.5,381.32,1045.23z"/>
			<path class="st4" d="M244.69,1023.37c0,0,65.58,251.4,174.89,235c0,0-32.79-163.96-71.05-191.28S288.41,1056.16,244.69,1023.37z"
				/>
			<path class="st4" d="M250.16,1225.58c0,0,49.19,92.91,76.51,169.42c27.33,76.51,81.98,103.84,153.03,114.77
				C479.7,1509.77,430.51,1236.51,250.16,1225.58z"/>
			<path class="st4" d="M282.95,1498.84c0,0,109.3,273.26,300.59,267.8c0,0-71.97-169.33-145.11-232.29
				c-13.99-12.04-31.91-18.55-50.37-18.5C361.91,1515.91,316.19,1513.61,282.95,1498.84z"/>
			<path class="st4" d="M354,1810.36l110.43-7.12c41.72-2.69,82.99,10.22,115.5,36.51c42.28,34.19,101.99,90.86,156.63,172.83
				C736.56,2012.57,599.93,2094.55,354,1810.36z"/>
			<path class="st4" d="M523.42,2083.62c0,0,284.19,306.05,459.08,185.82c0,0-196.75-207.68-278.73-213.14
				c-81.98-5.47-109.3,27.33-185.82,27.33"/>
			<path class="st4" d="M1130.06,2171.06c0,0,109.3-98.37-174.89-420.82c0,0-15.54,87.08-27.33,142.1
				C911.45,1968.85,1015.29,2143.74,1130.06,2171.06z"/>
			<path class="st4" d="M769.35,1558.96c0,0-98.37,163.96-21.86,273.26s103.84,120.23,103.84,120.23s76.51-103.84-21.86-278.73
				C829.47,1673.73,763.89,1575.35,769.35,1558.96z"/>
			<path class="st4" d="M687.37,1313.02c0,0-180.35,158.49-27.33,371.63c0,0,87.44-32.79,65.58-196.75
				C725.63,1487.91,665.51,1362.21,687.37,1313.02z"/>
			<path class="st4" d="M627.26,1127.2c0,0-120.23,54.65-98.37,180.35c21.86,125.7,27.33,136.63,27.33,136.63
				s65.58-49.19,76.51-125.7C643.65,1241.97,627.26,1127.2,627.26,1127.2z"/>
			<path class="st4" d="M496.09,1209.18c0,0-87.44-142.1,98.37-267.8c0,0,0,147.56-21.86,180.35
				C550.74,1154.53,567.14,1176.39,496.09,1209.18z"/>
			<path class="st4" d="M474.23,990.57c0,0-60.12-109.3,92.91-213.14C567.14,777.43,572.6,957.78,474.23,990.57z"/>
		</g>
		<g>
			<path class="st4" d="M2645.66,698.19c11.08,51.28,17.68,103.39,22.27,155.56c4.44,52.2,6.31,104.57,5.81,156.87
				c-1.27,104.59-12.02,209.02-34.01,310.94c-21.85,101.9-54.7,201.3-99.04,295.12c-22.19,46.88-47.01,92.48-74.86,136.13
				c-27.83,43.65-58.36,85.49-91.26,125.32c-16.26,20.08-33.72,39.13-51.06,58.25l-26.97,27.78c-8.9,9.34-18.55,17.95-27.78,26.95
				c-37.6,35.32-76.8,68.99-118.35,99.61c-5.16,3.87-10.22,7.86-15.45,11.64l-15.84,11.12c-10.62,7.33-20.97,15.02-31.79,22.04
				c-21.66,14.03-43.12,28.32-65.48,41.22c-21.93,13.58-44.73,25.71-67.31,38.19c-11.22,6.35-22.96,11.79-34.41,17.73
				c-11.58,5.7-22.88,11.92-34.68,17.18c-186.73,88.61-387.48,145.76-591.44,181.52l14.4,75.14
				c207.88-43,412.66-107.97,602.57-205.27c11.99-5.8,23.5-12.58,35.27-18.82c11.64-6.49,23.55-12.46,34.96-19.38
				c22.95-13.59,46.07-26.83,68.33-41.56c22.67-14.03,44.44-29.48,66.36-44.65c10.95-7.59,21.44-15.87,32.17-23.78l16-11.99
				c5.28-4.06,10.4-8.35,15.61-12.51c41.95-32.94,81.43-68.97,119.14-106.62c9.26-9.59,18.92-18.77,27.83-28.69l26.96-29.51
				c17.31-20.27,34.68-40.45,50.82-61.65c32.65-42.06,62.74-86.06,89.94-131.74c27.22-45.67,51.23-93.17,72.45-141.77
				c42.4-97.27,72.69-199.4,91.68-303.26c19.12-103.88,26.73-209.52,24.81-314.71c-1.1-52.6-4.58-105.12-10.62-157.31
				C2666.5,801.11,2658.3,749.12,2645.66,698.19z"/>
			<path class="st4" d="M2730.37,1045.23c0,0,5.47-147.56,27.33-169.42c21.86-21.86,81.98-60.12,81.98-60.12
				s-27.33,71.05-21.86,125.7C2817.81,941.39,2823.28,1001.5,2730.37,1045.23z"/>
			<path class="st4" d="M2867,1023.37c0,0-65.58,251.4-174.89,235c0,0,32.79-163.96,71.05-191.28S2823.28,1056.16,2867,1023.37z"/>
			<path class="st4" d="M2861.53,1225.58c0,0-49.19,92.91-76.51,169.42c-27.33,76.51-81.98,103.84-153.03,114.77
				C2632,1509.77,2681.18,1236.51,2861.53,1225.58z"/>
			<path class="st4" d="M2828.74,1498.84c0,0-109.3,273.26-300.59,267.8c0,0,71.97-169.33,145.11-232.29
				c13.99-12.04,31.91-18.55,50.37-18.5C2749.78,1515.91,2795.5,1513.61,2828.74,1498.84z"/>
			<path class="st4" d="M2757.7,1810.36l-110.43-7.12c-41.72-2.69-82.99,10.22-115.5,36.51c-42.28,34.19-101.99,90.86-156.63,172.83
				C2375.13,2012.57,2511.76,2094.55,2757.7,1810.36z"/>
			<path class="st4" d="M2588.27,2083.62c0,0-284.19,306.05-459.08,185.82c0,0,196.75-207.68,278.73-213.14
				c81.98-5.47,109.3,27.33,185.82,27.33"/>
			<path class="st4" d="M1981.64,2171.06c0,0-109.3-98.37,174.89-420.82c0,0,15.54,87.08,27.33,142.1
				C2200.24,1968.85,2096.4,2143.74,1981.64,2171.06z"/>
			<path class="st4" d="M2342.34,1558.96c0,0,98.37,163.96,21.86,273.26c-76.51,109.3-103.84,120.23-103.84,120.23
				s-76.51-103.84,21.86-278.73C2282.22,1673.73,2347.8,1575.35,2342.34,1558.96z"/>
			<path class="st4" d="M2424.32,1313.02c0,0,180.35,158.49,27.33,371.63c0,0-87.44-32.79-65.58-196.75
				C2386.06,1487.91,2446.18,1362.21,2424.32,1313.02z"/>
			<path class="st4" d="M2484.43,1127.2c0,0,120.23,54.65,98.37,180.35s-27.33,136.63-27.33,136.63s-65.58-49.19-76.51-125.7
				C2468.04,1241.97,2484.43,1127.2,2484.43,1127.2z"/>
			<path class="st4" d="M2615.6,1209.18c0,0,87.44-142.1-98.37-267.8c0,0,0,147.56,21.86,180.35
				C2560.95,1154.53,2544.55,1176.39,2615.6,1209.18z"/>
			<path class="st4" d="M2637.46,990.57c0,0,60.12-109.3-92.91-213.14C2544.55,777.43,2539.09,957.78,2637.46,990.57z"/>
		</g>
	</g>
	<g class="st1">
		<path class="st4" d="M1540.41,2128.37v-318.33c0,0-61.32-99.25-178.57-74.67c-9.51,1.99-16.31,10.39-16.31,20.1v284.22
			c0,11.15,8.89,20.25,20.04,20.53C1403.71,2061.16,1487.58,2070.22,1540.41,2128.37z"/>
		<path class="st4" d="M1571.28,2128.37v-318.33c0,0,61.32-99.25,178.57-74.67c9.51,1.99,16.31,10.39,16.31,20.1v284.22
			c0,11.15-8.89,20.25-20.04,20.53C1707.99,2061.16,1624.11,2070.22,1571.28,2128.37z"/>
		<path class="st4" d="M1599.49,2145.12c0,0,125.02-23.78,214.82-4.81c9.72,2.05,18.85-5.38,18.85-15.31v-312.3
			c0-9.75-7.9-17.65-17.65-17.65h-15.85v250.74c0,24.38-18.94,44.53-43.27,46.12C1708.55,2095.04,1633.74,2106.27,1599.49,2145.12z"
			/>
		<path class="st4" d="M1512.2,2145.12c0,0-125.02-23.78-214.82-4.81c-9.72,2.05-18.85-5.38-18.85-15.31v-312.3
			c0-9.75,7.9-17.65,17.65-17.65h15.85v250.74c0,24.38,18.94,44.53,43.27,46.12C1403.14,2095.04,1477.95,2106.27,1512.2,2145.12z"/>
	</g>
	<g class="st1">
		<polygon class="st3" points="1250.17,913.5 648.72,913.5 648.72,892.58 1229.25,892.58 1229.25,751.37 1552.82,751.37 
			1552.82,772.29 1250.17,772.29 		"/>
	</g>
	<g class="st1">
		<polygon class="st3" points="2457.62,913.5 1856.16,913.5 1856.16,772.29 1553.52,772.29 1553.52,751.37 1877.08,751.37 
			1877.08,892.58 2457.62,892.58 		"/>
	</g>
</g>
<g>
	<g>
		<g>
			<path class="st5" d="M1760.55,755.77l2.21,5.64h-19.31c0.47-4.83,0.64-9.71,0.7-14.6c0.23-23.79-4.01-47.23-12.56-69.62
				c-18.15-47.75-53.8-85.56-100.45-106.38c-24.95-11.23-51.3-16.93-78.29-16.93c-23.15,0-46.07,4.25-68.05,12.62
				c-47.75,18.21-85.56,53.92-106.44,100.45c-11.4,25.48-17.1,52.35-16.87,79.92c0,4.89,0.23,9.71,0.7,14.54h-25.3l2.21-4.94
				l5.7-12.85l1.98-4.36l-1.69-4.54l-37.98-99.75l99.75-37.92l4.54-1.74l1.98-4.36l43.68-97.42l97.42,43.68l4.36,1.98l4.54-1.74
				l99.75-37.92l37.92,99.75l1.74,4.54l4.36,1.92l97.42,43.74l-43.51,96.84l-0.23,0.58l-1.98,4.42L1760.55,755.77z"/>
		</g>
		<g>
			<path class="st5" d="M1684.65,740.01c0,7.21-0.58,14.37-1.75,21.4H1422.8c-1.16-7.04-1.8-14.19-1.8-21.35
				c0-18.67,3.9-36.88,11.63-54.09c21.17-47.29,68.4-77.82,120.28-77.88c18.67,0,36.76,3.96,53.92,11.63
				C1654.11,640.96,1684.65,688.19,1684.65,740.01z"/>
		</g>
	</g>
	<g>
		<path class="st5" d="M1270.69,979.18v634.62H911.83V979.18H1270.69 M1290.62,959.25H891.9v674.48h398.72V959.25L1290.62,959.25z"
			/>
		<path class="st5" d="M1801.14,843.93v769.87h-490.59V843.93H1801.14 M1821.07,824h-530.45v809.73h530.45V824L1821.07,824z"/>
		<path class="st5" d="M1290.62,1054.1v88.12c-30.16-22.13-89.65-37.18-158.08-37.18c-91.35,0-166.74,26.82-177.77,61.48h-43.54
			v467.22H891.9V1054.1H1290.62z"/>
		<path class="st5" d="M2199.86,979.18v634.62H1841V979.18H2199.86 M2219.79,959.25h-398.72v674.48h398.72V959.25L2219.79,959.25z"
			/>
		<path class="st5" d="M1821.07,1054.1v88.12c30.16-22.13,89.65-37.18,158.08-37.18c91.35,0,166.74,26.82,177.77,61.48h43.54v467.22
			h19.32V1054.1H1821.07z"/>
		<rect x="1290.62" y="989.11" class="st5" width="22.83" height="644.62"/>
		<rect x="1798.24" y="989.11" class="st5" width="22.83" height="644.62"/>
		<rect x="1290.62" y="824" class="st5" width="530.45" height="165.11"/>
		<path class="st5" d="M1798.24,1001.4v145.82c-52.25-21.2-141.31-70.29-242.39-70.29s-190.14,49.09-242.39,70.29V1001.4H1798.24z"
			/>
		<g>
			<g>
				<path class="st5" d="M1077.74,1310.54H971.28V1185.1h106.46V1310.54z M977.01,1304.82h95.02v-114h-95.02V1304.82z"/>
			</g>
			<g>
				<rect x="1001.96" y="1187.96" class="st5" width="5.72" height="119.72"/>
			</g>
			<g>
				<rect x="1042.26" y="1188.44" class="st5" width="5.72" height="119.72"/>
			</g>
			<g>
				<rect x="974.14" y="1219.42" class="st5" width="100.74" height="5.72"/>
			</g>
		</g>
		<g>
			<g>
				<path class="st5" d="M1237.58,1310.54h-106.46V1185.1h106.46V1310.54z M1136.84,1304.82h95.02v-114h-95.02V1304.82z"/>
			</g>
			<g>
				<rect x="1161.8" y="1187.96" class="st5" width="5.72" height="119.72"/>
			</g>
			<g>
				<rect x="1202.1" y="1188.44" class="st5" width="5.72" height="119.72"/>
			</g>
			<g>
				<rect x="1133.98" y="1219.42" class="st5" width="100.74" height="5.72"/>
			</g>
		</g>
		<g>
			<g>
				<path class="st5" d="M1077.74,1542.4H971.28v-125.44h106.46V1542.4z M977.01,1536.67h95.02v-114h-95.02V1536.67z"/>
			</g>
			<g>
				<rect x="1001.96" y="1419.81" class="st5" width="5.72" height="119.72"/>
			</g>
			<g>
				<rect x="1042.26" y="1420.29" class="st5" width="5.72" height="119.72"/>
			</g>
			<g>
				<rect x="974.14" y="1451.28" class="st5" width="100.74" height="5.72"/>
			</g>
		</g>
		<g>
			<g>
				<path class="st5" d="M1237.58,1542.4h-106.46v-125.44h106.46V1542.4z M1136.84,1536.67h95.02v-114h-95.02V1536.67z"/>
			</g>
			<g>
				<rect x="1161.8" y="1419.81" class="st5" width="5.72" height="119.72"/>
			</g>
			<g>
				<rect x="1202.1" y="1420.29" class="st5" width="5.72" height="119.72"/>
			</g>
			<g>
				<rect x="1133.98" y="1451.28" class="st5" width="100.74" height="5.72"/>
			</g>
		</g>
		<g>
			<g>
				<path class="st5" d="M1994.62,1310.54h-106.46V1185.1h106.46V1310.54z M1893.88,1304.82h95.02v-114h-95.02V1304.82z"/>
			</g>
			<g>
				<rect x="1918.84" y="1187.96" class="st5" width="5.72" height="119.72"/>
			</g>
			<g>
				<rect x="1959.13" y="1188.44" class="st5" width="5.72" height="119.72"/>
			</g>
			<g>
				<rect x="1891.02" y="1219.42" class="st5" width="100.74" height="5.72"/>
			</g>
		</g>
		<g>
			<g>
				<path class="st5" d="M2154.46,1310.54H2048V1185.1h106.46V1310.54z M2053.72,1304.82h95.01v-114h-95.01V1304.82z"/>
			</g>
			<g>
				<rect x="2078.68" y="1187.96" class="st5" width="5.72" height="119.72"/>
			</g>
			<g>
				<rect x="2118.97" y="1188.44" class="st5" width="5.72" height="119.72"/>
			</g>
			<g>
				<rect x="2050.86" y="1219.42" class="st5" width="100.74" height="5.72"/>
			</g>
		</g>
		<g>
			<g>
				<path class="st5" d="M1994.62,1542.4h-106.46v-125.44h106.46V1542.4z M1893.88,1536.67h95.02v-114h-95.02V1536.67z"/>
			</g>
			<g>
				<rect x="1918.84" y="1419.81" class="st5" width="5.72" height="119.72"/>
			</g>
			<g>
				<rect x="1959.13" y="1420.29" class="st5" width="5.72" height="119.72"/>
			</g>
			<g>
				<rect x="1891.02" y="1451.28" class="st5" width="100.74" height="5.72"/>
			</g>
		</g>
		<g>
			<g>
				<path class="st5" d="M2154.46,1542.4H2048v-125.44h106.46V1542.4z M2053.72,1536.67h95.01v-114h-95.01V1536.67z"/>
			</g>
			<g>
				<rect x="2078.68" y="1419.81" class="st5" width="5.72" height="119.72"/>
			</g>
			<g>
				<rect x="2118.97" y="1420.29" class="st5" width="5.72" height="119.72"/>
			</g>
			<g>
				<rect x="2050.86" y="1451.28" class="st5" width="100.74" height="5.72"/>
			</g>
		</g>
		<rect x="1313.45" y="1370.26" class="st5" width="484.79" height="68.5"/>
	</g>
	<g>
		<g>
			<path class="st5" d="M466.03,698.19c-11.08,51.28-17.68,103.39-22.27,155.56c-4.44,52.2-6.31,104.57-5.81,156.87
				c1.27,104.59,12.02,209.02,34.01,310.94c21.85,101.9,54.7,201.3,99.04,295.12c22.19,46.88,47.01,92.48,74.86,136.13
				c27.83,43.65,58.36,85.49,91.26,125.32c16.26,20.08,33.72,39.13,51.06,58.25l26.97,27.78c8.9,9.34,18.55,17.95,27.78,26.95
				c37.6,35.32,76.8,68.99,118.35,99.61c5.16,3.87,10.22,7.86,15.45,11.64l15.84,11.12c10.62,7.33,20.97,15.02,31.79,22.04
				c21.66,14.03,43.12,28.32,65.48,41.22c21.93,13.58,44.73,25.71,67.31,38.19c11.22,6.35,22.96,11.79,34.41,17.73
				c11.58,5.7,22.88,11.92,34.68,17.18c186.73,88.61,387.48,145.76,591.44,181.52l-14.4,75.14
				c-207.88-43-412.66-107.97-602.57-205.27c-11.99-5.8-23.5-12.58-35.27-18.82c-11.64-6.49-23.55-12.46-34.96-19.38
				c-22.95-13.59-46.07-26.83-68.33-41.56c-22.67-14.03-44.44-29.48-66.36-44.65c-10.95-7.59-21.44-15.87-32.17-23.78l-16-11.99
				c-5.28-4.06-10.4-8.35-15.61-12.51c-41.95-32.94-81.43-68.97-119.14-106.62c-9.26-9.59-18.92-18.77-27.83-28.69l-26.96-29.51
				c-17.31-20.27-34.68-40.45-50.82-61.65c-32.65-42.06-62.74-86.06-89.94-131.74c-27.22-45.67-51.23-93.17-72.45-141.77
				c-42.4-97.27-72.69-199.4-91.68-303.26c-19.12-103.88-26.73-209.52-24.81-314.71c1.1-52.6,4.58-105.12,10.62-157.31
				C445.19,801.11,453.39,749.12,466.03,698.19z"/>
			<path class="st5" d="M381.32,1045.23c0,0-5.47-147.56-27.33-169.42c-21.86-21.86-81.98-60.12-81.98-60.12
				s27.33,71.05,21.86,125.7C293.88,941.39,288.41,1001.5,381.32,1045.23z"/>
			<path class="st5" d="M244.69,1023.37c0,0,65.58,251.4,174.89,235c0,0-32.79-163.96-71.05-191.28S288.41,1056.16,244.69,1023.37z"
				/>
			<path class="st5" d="M250.16,1225.58c0,0,49.19,92.91,76.51,169.42c27.33,76.51,81.98,103.84,153.03,114.77
				C479.7,1509.77,430.51,1236.51,250.16,1225.58z"/>
			<path class="st5" d="M282.95,1498.84c0,0,109.3,273.26,300.59,267.8c0,0-71.97-169.33-145.11-232.29
				c-13.99-12.04-31.91-18.55-50.37-18.5C361.91,1515.91,316.19,1513.61,282.95,1498.84z"/>
			<path class="st5" d="M354,1810.36l110.43-7.12c41.72-2.69,82.99,10.22,115.5,36.51c42.28,34.19,101.99,90.86,156.63,172.83
				C736.56,2012.57,599.93,2094.55,354,1810.36z"/>
			<path class="st5" d="M523.42,2083.62c0,0,284.19,306.05,459.08,185.82c0,0-196.75-207.68-278.73-213.14
				c-81.98-5.47-109.3,27.33-185.82,27.33"/>
			<path class="st5" d="M1130.06,2171.06c0,0,109.3-98.37-174.89-420.82c0,0-15.54,87.08-27.33,142.1
				C911.45,1968.85,1015.29,2143.74,1130.06,2171.06z"/>
			<path class="st5" d="M769.35,1558.96c0,0-98.37,163.96-21.86,273.26s103.84,120.23,103.84,120.23s76.51-103.84-21.86-278.73
				C829.47,1673.73,763.89,1575.35,769.35,1558.96z"/>
			<path class="st5" d="M687.37,1313.02c0,0-180.35,158.49-27.33,371.63c0,0,87.44-32.79,65.58-196.75
				C725.63,1487.91,665.51,1362.21,687.37,1313.02z"/>
			<path class="st5" d="M627.26,1127.2c0,0-120.23,54.65-98.37,180.35c21.86,125.7,27.33,136.63,27.33,136.63
				s65.58-49.19,76.51-125.7C643.65,1241.97,627.26,1127.2,627.26,1127.2z"/>
			<path class="st5" d="M496.09,1209.18c0,0-87.44-142.1,98.37-267.8c0,0,0,147.56-21.86,180.35
				C550.74,1154.53,567.14,1176.39,496.09,1209.18z"/>
			<path class="st5" d="M474.23,990.57c0,0-60.12-109.3,92.91-213.14C567.14,777.43,572.6,957.78,474.23,990.57z"/>
		</g>
		<g>
			<path class="st5" d="M2645.66,698.19c11.08,51.28,17.68,103.39,22.27,155.56c4.44,52.2,6.31,104.57,5.81,156.87
				c-1.27,104.59-12.02,209.02-34.01,310.94c-21.85,101.9-54.7,201.3-99.04,295.12c-22.19,46.88-47.01,92.48-74.86,136.13
				c-27.83,43.65-58.36,85.49-91.26,125.32c-16.26,20.08-33.72,39.13-51.06,58.25l-26.97,27.78c-8.9,9.34-18.55,17.95-27.78,26.95
				c-37.6,35.32-76.8,68.99-118.35,99.61c-5.16,3.87-10.22,7.86-15.45,11.64l-15.84,11.12c-10.62,7.33-20.97,15.02-31.79,22.04
				c-21.66,14.03-43.12,28.32-65.48,41.22c-21.93,13.58-44.73,25.71-67.31,38.19c-11.22,6.35-22.96,11.79-34.41,17.73
				c-11.58,5.7-22.88,11.92-34.68,17.18c-186.73,88.61-387.48,145.76-591.44,181.52l14.4,75.14
				c207.88-43,412.66-107.97,602.57-205.27c11.99-5.8,23.5-12.58,35.27-18.82c11.64-6.49,23.55-12.46,34.96-19.38
				c22.95-13.59,46.07-26.83,68.33-41.56c22.67-14.03,44.44-29.48,66.36-44.65c10.95-7.59,21.44-15.87,32.17-23.78l16-11.99
				c5.28-4.06,10.4-8.35,15.61-12.51c41.95-32.94,81.43-68.97,119.14-106.62c9.26-9.59,18.92-18.77,27.83-28.69l26.96-29.51
				c17.31-20.27,34.68-40.45,50.82-61.65c32.65-42.06,62.74-86.06,89.94-131.74c27.22-45.67,51.23-93.17,72.45-141.77
				c42.4-97.27,72.69-199.4,91.68-303.26c19.12-103.88,26.73-209.52,24.81-314.71c-1.1-52.6-4.58-105.12-10.62-157.31
				C2666.5,801.11,2658.3,749.12,2645.66,698.19z"/>
			<path class="st5" d="M2730.37,1045.23c0,0,5.47-147.56,27.33-169.42c21.86-21.86,81.98-60.12,81.98-60.12
				s-27.33,71.05-21.86,125.7C2817.81,941.39,2823.28,1001.5,2730.37,1045.23z"/>
			<path class="st5" d="M2867,1023.37c0,0-65.58,251.4-174.89,235c0,0,32.79-163.96,71.05-191.28S2823.28,1056.16,2867,1023.37z"/>
			<path class="st5" d="M2861.53,1225.58c0,0-49.19,92.91-76.51,169.42c-27.33,76.51-81.98,103.84-153.03,114.77
				C2632,1509.77,2681.18,1236.51,2861.53,1225.58z"/>
			<path class="st5" d="M2828.74,1498.84c0,0-109.3,273.26-300.59,267.8c0,0,71.97-169.33,145.11-232.29
				c13.99-12.04,31.91-18.55,50.37-18.5C2749.78,1515.91,2795.5,1513.61,2828.74,1498.84z"/>
			<path class="st5" d="M2757.7,1810.36l-110.43-7.12c-41.72-2.69-82.99,10.22-115.5,36.51c-42.28,34.19-101.99,90.86-156.63,172.83
				C2375.13,2012.57,2511.76,2094.55,2757.7,1810.36z"/>
			<path class="st5" d="M2588.27,2083.62c0,0-284.19,306.05-459.08,185.82c0,0,196.75-207.68,278.73-213.14
				c81.98-5.47,109.3,27.33,185.82,27.33"/>
			<path class="st5" d="M1981.64,2171.06c0,0-109.3-98.37,174.89-420.82c0,0,15.54,87.08,27.33,142.1
				C2200.24,1968.85,2096.4,2143.74,1981.64,2171.06z"/>
			<path class="st5" d="M2342.34,1558.96c0,0,98.37,163.96,21.86,273.26c-76.51,109.3-103.84,120.23-103.84,120.23
				s-76.51-103.84,21.86-278.73C2282.22,1673.73,2347.8,1575.35,2342.34,1558.96z"/>
			<path class="st5" d="M2424.32,1313.02c0,0,180.35,158.49,27.33,371.63c0,0-87.44-32.79-65.58-196.75
				C2386.06,1487.91,2446.18,1362.21,2424.32,1313.02z"/>
			<path class="st5" d="M2484.43,1127.2c0,0,120.23,54.65,98.37,180.35s-27.33,136.63-27.33,136.63s-65.58-49.19-76.51-125.7
				C2468.04,1241.97,2484.43,1127.2,2484.43,1127.2z"/>
			<path class="st5" d="M2615.6,1209.18c0,0,87.44-142.1-98.37-267.8c0,0,0,147.56,21.86,180.35
				C2560.95,1154.53,2544.55,1176.39,2615.6,1209.18z"/>
			<path class="st5" d="M2637.46,990.57c0,0,60.12-109.3-92.91-213.14C2544.55,777.43,2539.09,957.78,2637.46,990.57z"/>
		</g>
	</g>
	<g>
		<path class="st5" d="M1540.41,2128.37v-318.33c0,0-61.32-99.25-178.57-74.67c-9.51,1.99-16.31,10.39-16.31,20.1v284.22
			c0,11.15,8.89,20.25,20.04,20.53C1403.71,2061.16,1487.58,2070.22,1540.41,2128.37z"/>
		<path class="st5" d="M1571.28,2128.37v-318.33c0,0,61.32-99.25,178.57-74.67c9.51,1.99,16.31,10.39,16.31,20.1v284.22
			c0,11.15-8.89,20.25-20.04,20.53C1707.99,2061.16,1624.11,2070.22,1571.28,2128.37z"/>
		<path class="st5" d="M1599.49,2145.12c0,0,125.02-23.78,214.82-4.81c9.72,2.05,18.85-5.38,18.85-15.31v-312.3
			c0-9.75-7.9-17.65-17.65-17.65h-15.85v250.74c0,24.38-18.94,44.53-43.27,46.12C1708.55,2095.04,1633.74,2106.27,1599.49,2145.12z"
			/>
		<path class="st5" d="M1512.2,2145.12c0,0-125.02-23.78-214.82-4.81c-9.72,2.05-18.85-5.38-18.85-15.31v-312.3
			c0-9.75,7.9-17.65,17.65-17.65h15.85v250.74c0,24.38,18.94,44.53,43.27,46.12C1403.14,2095.04,1477.95,2106.27,1512.2,2145.12z"/>
	</g>
	<g>
		<polygon class="st5" points="1250.17,913.5 648.72,913.5 648.72,892.58 1229.25,892.58 1229.25,751.37 1552.82,751.37 
			1552.82,772.29 1250.17,772.29 		"/>
	</g>
	<g>
		<polygon class="st5" points="2457.62,913.5 1856.16,913.5 1856.16,772.29 1553.52,772.29 1553.52,751.37 1877.08,751.37 
			1877.08,892.58 2457.62,892.58 		"/>
	</g>
</g>
<g class="st0">
	<g class="st1">
		<g>
			<path d="M1760.55,755.77l2.21,5.64h-19.31c0.47-4.83,0.64-9.71,0.7-14.6c0.23-23.79-4.01-47.23-12.56-69.62
				c-18.15-47.75-53.8-85.56-100.45-106.38c-24.95-11.23-51.3-16.93-78.29-16.93c-23.15,0-46.07,4.25-68.05,12.62
				c-47.75,18.21-85.56,53.92-106.44,100.45c-11.4,25.48-17.1,52.35-16.87,79.92c0,4.89,0.23,9.71,0.7,14.54h-25.3l2.21-4.94
				l5.7-12.85l1.98-4.36l-1.69-4.54l-37.98-99.75l99.75-37.92l4.54-1.74l1.98-4.36l43.68-97.42l97.42,43.68l4.36,1.98l4.54-1.74
				l99.75-37.92l37.92,99.75l1.74,4.54l4.36,1.92l97.42,43.74l-43.51,96.84l-0.23,0.58l-1.98,4.42L1760.55,755.77z"/>
		</g>
		<g>
			<path d="M1684.65,740.01c0,7.21-0.58,14.37-1.75,21.4H1422.8c-1.16-7.04-1.8-14.19-1.8-21.35c0-18.67,3.9-36.88,11.63-54.09
				c21.17-47.29,68.4-77.82,120.28-77.88c18.67,0,36.76,3.96,53.92,11.63C1654.11,640.96,1684.65,688.19,1684.65,740.01z"/>
		</g>
	</g>
	<g class="st1">
		<path d="M1270.69,979.18v634.62H911.83V979.18H1270.69 M1290.62,959.25H891.9v674.48h398.72V959.25L1290.62,959.25z"/>
		<path d="M1801.14,843.93v769.87h-490.59V843.93H1801.14 M1821.07,824h-530.45v809.73h530.45V824L1821.07,824z"/>
		<path d="M1290.62,1054.1v88.12c-30.16-22.13-89.65-37.18-158.08-37.18c-91.35,0-166.74,26.82-177.77,61.48h-43.54v467.22H891.9
			V1054.1H1290.62z"/>
		<path d="M2199.86,979.18v634.62H1841V979.18H2199.86 M2219.79,959.25h-398.72v674.48h398.72V959.25L2219.79,959.25z"/>
		<path d="M1821.07,1054.1v88.12c30.16-22.13,89.65-37.18,158.08-37.18c91.35,0,166.74,26.82,177.77,61.48h43.54v467.22h19.32
			V1054.1H1821.07z"/>
		<rect x="1290.62" y="989.11" width="22.83" height="644.62"/>
		<rect x="1798.24" y="989.11" width="22.83" height="644.62"/>
		<rect x="1290.62" y="824" width="530.45" height="165.11"/>
		<path d="M1798.24,1001.4v145.82c-52.25-21.2-141.31-70.29-242.39-70.29s-190.14,49.09-242.39,70.29V1001.4H1798.24z"/>
		<g>
			<g>
				<path d="M1077.74,1310.54H971.28V1185.1h106.46V1310.54z M977.01,1304.82h95.02v-114h-95.02V1304.82z"/>
			</g>
			<g>
				<rect x="1001.96" y="1187.96" width="5.72" height="119.72"/>
			</g>
			<g>
				<rect x="1042.26" y="1188.44" width="5.72" height="119.72"/>
			</g>
			<g>
				<rect x="974.14" y="1219.42" width="100.74" height="5.72"/>
			</g>
		</g>
		<g>
			<g>
				<path d="M1237.58,1310.54h-106.46V1185.1h106.46V1310.54z M1136.84,1304.82h95.02v-114h-95.02V1304.82z"/>
			</g>
			<g>
				<rect x="1161.8" y="1187.96" width="5.72" height="119.72"/>
			</g>
			<g>
				<rect x="1202.1" y="1188.44" width="5.72" height="119.72"/>
			</g>
			<g>
				<rect x="1133.98" y="1219.42" width="100.74" height="5.72"/>
			</g>
		</g>
		<g>
			<g>
				<path d="M1077.74,1542.4H971.28v-125.44h106.46V1542.4z M977.01,1536.67h95.02v-114h-95.02V1536.67z"/>
			</g>
			<g>
				<rect x="1001.96" y="1419.81" width="5.72" height="119.72"/>
			</g>
			<g>
				<rect x="1042.26" y="1420.29" width="5.72" height="119.72"/>
			</g>
			<g>
				<rect x="974.14" y="1451.28" width="100.74" height="5.72"/>
			</g>
		</g>
		<g>
			<g>
				<path d="M1237.58,1542.4h-106.46v-125.44h106.46V1542.4z M1136.84,1536.67h95.02v-114h-95.02V1536.67z"/>
			</g>
			<g>
				<rect x="1161.8" y="1419.81" width="5.72" height="119.72"/>
			</g>
			<g>
				<rect x="1202.1" y="1420.29" width="5.72" height="119.72"/>
			</g>
			<g>
				<rect x="1133.98" y="1451.28" width="100.74" height="5.72"/>
			</g>
		</g>
		<g>
			<g>
				<path d="M1994.62,1310.54h-106.46V1185.1h106.46V1310.54z M1893.88,1304.82h95.02v-114h-95.02V1304.82z"/>
			</g>
			<g>
				<rect x="1918.84" y="1187.96" width="5.72" height="119.72"/>
			</g>
			<g>
				<rect x="1959.13" y="1188.44" width="5.72" height="119.72"/>
			</g>
			<g>
				<rect x="1891.02" y="1219.42" width="100.74" height="5.72"/>
			</g>
		</g>
		<g>
			<g>
				<path d="M2154.46,1310.54H2048V1185.1h106.46V1310.54z M2053.72,1304.82h95.01v-114h-95.01V1304.82z"/>
			</g>
			<g>
				<rect x="2078.68" y="1187.96" width="5.72" height="119.72"/>
			</g>
			<g>
				<rect x="2118.97" y="1188.44" width="5.72" height="119.72"/>
			</g>
			<g>
				<rect x="2050.86" y="1219.42" width="100.74" height="5.72"/>
			</g>
		</g>
		<g>
			<g>
				<path d="M1994.62,1542.4h-106.46v-125.44h106.46V1542.4z M1893.88,1536.67h95.02v-114h-95.02V1536.67z"/>
			</g>
			<g>
				<rect x="1918.84" y="1419.81" width="5.72" height="119.72"/>
			</g>
			<g>
				<rect x="1959.13" y="1420.29" width="5.72" height="119.72"/>
			</g>
			<g>
				<rect x="1891.02" y="1451.28" width="100.74" height="5.72"/>
			</g>
		</g>
		<g>
			<g>
				<path d="M2154.46,1542.4H2048v-125.44h106.46V1542.4z M2053.72,1536.67h95.01v-114h-95.01V1536.67z"/>
			</g>
			<g>
				<rect x="2078.68" y="1419.81" width="5.72" height="119.72"/>
			</g>
			<g>
				<rect x="2118.97" y="1420.29" width="5.72" height="119.72"/>
			</g>
			<g>
				<rect x="2050.86" y="1451.28" width="100.74" height="5.72"/>
			</g>
		</g>
		<rect x="1313.45" y="1370.26" width="484.79" height="68.5"/>
	</g>
	<g class="st1">
		<g>
			<path d="M466.03,698.19c-11.08,51.28-17.68,103.39-22.27,155.56c-4.44,52.2-6.31,104.57-5.81,156.87
				c1.27,104.59,12.02,209.02,34.01,310.94c21.85,101.9,54.7,201.3,99.04,295.12c22.19,46.88,47.01,92.48,74.86,136.13
				c27.83,43.65,58.36,85.49,91.26,125.32c16.26,20.08,33.72,39.13,51.06,58.25l26.97,27.78c8.9,9.34,18.55,17.95,27.78,26.95
				c37.6,35.32,76.8,68.99,118.35,99.61c5.16,3.87,10.22,7.86,15.45,11.64l15.84,11.12c10.62,7.33,20.97,15.02,31.79,22.04
				c21.66,14.03,43.12,28.32,65.48,41.22c21.93,13.58,44.73,25.71,67.31,38.19c11.22,6.35,22.96,11.79,34.41,17.73
				c11.58,5.7,22.88,11.92,34.68,17.18c186.73,88.61,387.48,145.76,591.44,181.52l-14.4,75.14
				c-207.88-43-412.66-107.97-602.57-205.27c-11.99-5.8-23.5-12.58-35.27-18.82c-11.64-6.49-23.55-12.46-34.96-19.38
				c-22.95-13.59-46.07-26.83-68.33-41.56c-22.67-14.03-44.44-29.48-66.36-44.65c-10.95-7.59-21.44-15.87-32.17-23.78l-16-11.99
				c-5.28-4.06-10.4-8.35-15.61-12.51c-41.95-32.94-81.43-68.97-119.14-106.62c-9.26-9.59-18.92-18.77-27.83-28.69l-26.96-29.51
				c-17.31-20.27-34.68-40.45-50.82-61.65c-32.65-42.06-62.74-86.06-89.94-131.74c-27.22-45.67-51.23-93.17-72.45-141.77
				c-42.4-97.27-72.69-199.4-91.68-303.26c-19.12-103.88-26.73-209.52-24.81-314.71c1.1-52.6,4.58-105.12,10.62-157.31
				C445.19,801.11,453.39,749.12,466.03,698.19z"/>
			<path d="M381.32,1045.23c0,0-5.47-147.56-27.33-169.42c-21.86-21.86-81.98-60.12-81.98-60.12s27.33,71.05,21.86,125.7
				C293.88,941.39,288.41,1001.5,381.32,1045.23z"/>
			<path d="M244.69,1023.37c0,0,65.58,251.4,174.89,235c0,0-32.79-163.96-71.05-191.28S288.41,1056.16,244.69,1023.37z"/>
			<path d="M250.16,1225.58c0,0,49.19,92.91,76.51,169.42c27.33,76.51,81.98,103.84,153.03,114.77
				C479.7,1509.77,430.51,1236.51,250.16,1225.58z"/>
			<path d="M282.95,1498.84c0,0,109.3,273.26,300.59,267.8c0,0-71.97-169.33-145.11-232.29c-13.99-12.04-31.91-18.55-50.37-18.5
				C361.91,1515.91,316.19,1513.61,282.95,1498.84z"/>
			<path d="M354,1810.36l110.43-7.12c41.72-2.69,82.99,10.22,115.5,36.51c42.28,34.19,101.99,90.86,156.63,172.83
				C736.56,2012.57,599.93,2094.55,354,1810.36z"/>
			<path d="M523.42,2083.62c0,0,284.19,306.05,459.08,185.82c0,0-196.75-207.68-278.73-213.14c-81.98-5.47-109.3,27.33-185.82,27.33
				"/>
			<path d="M1130.06,2171.06c0,0,109.3-98.37-174.89-420.82c0,0-15.54,87.08-27.33,142.1
				C911.45,1968.85,1015.29,2143.74,1130.06,2171.06z"/>
			<path d="M769.35,1558.96c0,0-98.37,163.96-21.86,273.26s103.84,120.23,103.84,120.23s76.51-103.84-21.86-278.73
				C829.47,1673.73,763.89,1575.35,769.35,1558.96z"/>
			<path d="M687.37,1313.02c0,0-180.35,158.49-27.33,371.63c0,0,87.44-32.79,65.58-196.75
				C725.63,1487.91,665.51,1362.21,687.37,1313.02z"/>
			<path d="M627.26,1127.2c0,0-120.23,54.65-98.37,180.35c21.86,125.7,27.33,136.63,27.33,136.63s65.58-49.19,76.51-125.7
				C643.65,1241.97,627.26,1127.2,627.26,1127.2z"/>
			<path d="M496.09,1209.18c0,0-87.44-142.1,98.37-267.8c0,0,0,147.56-21.86,180.35C550.74,1154.53,567.14,1176.39,496.09,1209.18z"
				/>
			<path d="M474.23,990.57c0,0-60.12-109.3,92.91-213.14C567.14,777.43,572.6,957.78,474.23,990.57z"/>
		</g>
		<g>
			<path d="M2645.66,698.19c11.08,51.28,17.68,103.39,22.27,155.56c4.44,52.2,6.31,104.57,5.81,156.87
				c-1.27,104.59-12.02,209.02-34.01,310.94c-21.85,101.9-54.7,201.3-99.04,295.12c-22.19,46.88-47.01,92.48-74.86,136.13
				c-27.83,43.65-58.36,85.49-91.26,125.32c-16.26,20.08-33.72,39.13-51.06,58.25l-26.97,27.78c-8.9,9.34-18.55,17.95-27.78,26.95
				c-37.6,35.32-76.8,68.99-118.35,99.61c-5.16,3.87-10.22,7.86-15.45,11.64l-15.84,11.12c-10.62,7.33-20.97,15.02-31.79,22.04
				c-21.66,14.03-43.12,28.32-65.48,41.22c-21.93,13.58-44.73,25.71-67.31,38.19c-11.22,6.35-22.96,11.79-34.41,17.73
				c-11.58,5.7-22.88,11.92-34.68,17.18c-186.73,88.61-387.48,145.76-591.44,181.52l14.4,75.14
				c207.88-43,412.66-107.97,602.57-205.27c11.99-5.8,23.5-12.58,35.27-18.82c11.64-6.49,23.55-12.46,34.96-19.38
				c22.95-13.59,46.07-26.83,68.33-41.56c22.67-14.03,44.44-29.48,66.36-44.65c10.95-7.59,21.44-15.87,32.17-23.78l16-11.99
				c5.28-4.06,10.4-8.35,15.61-12.51c41.95-32.94,81.43-68.97,119.14-106.62c9.26-9.59,18.92-18.77,27.83-28.69l26.96-29.51
				c17.31-20.27,34.68-40.45,50.82-61.65c32.65-42.06,62.74-86.06,89.94-131.74c27.22-45.67,51.23-93.17,72.45-141.77
				c42.4-97.27,72.69-199.4,91.68-303.26c19.12-103.88,26.73-209.52,24.81-314.71c-1.1-52.6-4.58-105.12-10.62-157.31
				C2666.5,801.11,2658.3,749.12,2645.66,698.19z"/>
			<path d="M2730.37,1045.23c0,0,5.47-147.56,27.33-169.42c21.86-21.86,81.98-60.12,81.98-60.12s-27.33,71.05-21.86,125.7
				C2817.81,941.39,2823.28,1001.5,2730.37,1045.23z"/>
			<path d="M2867,1023.37c0,0-65.58,251.4-174.89,235c0,0,32.79-163.96,71.05-191.28S2823.28,1056.16,2867,1023.37z"/>
			<path d="M2861.53,1225.58c0,0-49.19,92.91-76.51,169.42c-27.33,76.51-81.98,103.84-153.03,114.77
				C2632,1509.77,2681.18,1236.51,2861.53,1225.58z"/>
			<path d="M2828.74,1498.84c0,0-109.3,273.26-300.59,267.8c0,0,71.97-169.33,145.11-232.29c13.99-12.04,31.91-18.55,50.37-18.5
				C2749.78,1515.91,2795.5,1513.61,2828.74,1498.84z"/>
			<path d="M2757.7,1810.36l-110.43-7.12c-41.72-2.69-82.99,10.22-115.5,36.51c-42.28,34.19-101.99,90.86-156.63,172.83
				C2375.13,2012.57,2511.76,2094.55,2757.7,1810.36z"/>
			<path d="M2588.27,2083.62c0,0-284.19,306.05-459.08,185.82c0,0,196.75-207.68,278.73-213.14c81.98-5.47,109.3,27.33,185.82,27.33
				"/>
			<path d="M1981.64,2171.06c0,0-109.3-98.37,174.89-420.82c0,0,15.54,87.08,27.33,142.1
				C2200.24,1968.85,2096.4,2143.74,1981.64,2171.06z"/>
			<path d="M2342.34,1558.96c0,0,98.37,163.96,21.86,273.26c-76.51,109.3-103.84,120.23-103.84,120.23s-76.51-103.84,21.86-278.73
				C2282.22,1673.73,2347.8,1575.35,2342.34,1558.96z"/>
			<path d="M2424.32,1313.02c0,0,180.35,158.49,27.33,371.63c0,0-87.44-32.79-65.58-196.75
				C2386.06,1487.91,2446.18,1362.21,2424.32,1313.02z"/>
			<path d="M2484.43,1127.2c0,0,120.23,54.65,98.37,180.35s-27.33,136.63-27.33,136.63s-65.58-49.19-76.51-125.7
				C2468.04,1241.97,2484.43,1127.2,2484.43,1127.2z"/>
			<path d="M2615.6,1209.18c0,0,87.44-142.1-98.37-267.8c0,0,0,147.56,21.86,180.35C2560.95,1154.53,2544.55,1176.39,2615.6,1209.18
				z"/>
			<path d="M2637.46,990.57c0,0,60.12-109.3-92.91-213.14C2544.55,777.43,2539.09,957.78,2637.46,990.57z"/>
		</g>
	</g>
	<g class="st1">
		<path d="M1540.41,2128.37v-318.33c0,0-61.32-99.25-178.57-74.67c-9.51,1.99-16.31,10.39-16.31,20.1v284.22
			c0,11.15,8.89,20.25,20.04,20.53C1403.71,2061.16,1487.58,2070.22,1540.41,2128.37z"/>
		<path d="M1571.28,2128.37v-318.33c0,0,61.32-99.25,178.57-74.67c9.51,1.99,16.31,10.39,16.31,20.1v284.22
			c0,11.15-8.89,20.25-20.04,20.53C1707.99,2061.16,1624.11,2070.22,1571.28,2128.37z"/>
		<path d="M1599.49,2145.12c0,0,125.02-23.78,214.82-4.81c9.72,2.05,18.85-5.38,18.85-15.31v-312.3c0-9.75-7.9-17.65-17.65-17.65
			h-15.85v250.74c0,24.38-18.94,44.53-43.27,46.12C1708.55,2095.04,1633.74,2106.27,1599.49,2145.12z"/>
		<path d="M1512.2,2145.12c0,0-125.02-23.78-214.82-4.81c-9.72,2.05-18.85-5.38-18.85-15.31v-312.3c0-9.75,7.9-17.65,17.65-17.65
			h15.85v250.74c0,24.38,18.94,44.53,43.27,46.12C1403.14,2095.04,1477.95,2106.27,1512.2,2145.12z"/>
	</g>
	<g class="st1">
		<polygon points="1250.17,913.5 648.72,913.5 648.72,892.58 1229.25,892.58 1229.25,751.37 1552.82,751.37 1552.82,772.29 
			1250.17,772.29 		"/>
	</g>
	<g class="st1">
		<polygon points="2457.62,913.5 1856.16,913.5 1856.16,772.29 1553.52,772.29 1553.52,751.37 1877.08,751.37 1877.08,892.58 
			2457.62,892.58 		"/>
	</g>
</g>
</svg>
